<?xml version="1.0" standalone="no"?>
        <!DOCTYPE svg PUBLIC "-//W3C//DTD SVG 1.1//EN" 
        "http://www.w3.org/Graphics/SVG/1.1/DTD/svg11.dtd">  <svg xmlns="http://www.w3.org/2000/svg" xmlns:xlink="http://www.w3.org/1999/xlink" width="40" zoomAndPan="magnify" viewBox="0 0 30 30.000001" height="40" preserveAspectRatio="xMidYMid meet" version="1.0"><defs><clipPath id="id1"><path d="M 2.644531 5.265625 L 27.320312 5.265625 L 27.320312 23.410156 L 2.644531 23.410156 Z M 2.644531 5.265625 " clip-rule="nonzero"/></clipPath></defs><g clip-path="url(#id1)"><path fill="rgb(0%, 60.778809%, 22.749329%)" d="M 27.316406 20.617188 C 27.316406 22.160156 26.085938 23.410156 24.574219 23.410156 L 5.390625 23.410156 C 3.875 23.410156 2.648438 22.160156 2.648438 20.617188 L 2.648438 8.054688 C 2.648438 6.515625 3.875 5.265625 5.390625 5.265625 L 24.574219 5.265625 C 26.085938 5.265625 27.316406 6.515625 27.316406 8.054688 Z M 27.316406 20.617188 " fill-opacity="1" fill-rule="nonzero"/></g><path fill="rgb(99.609375%, 87.449646%, 0.389099%)" d="M 25.074219 14.335938 L 14.980469 22.101562 L 4.890625 14.335938 L 14.980469 6.574219 Z M 25.074219 14.335938 " fill-opacity="1" fill-rule="nonzero"/><path fill="rgb(0%, 15.289307%, 46.269226%)" d="M 19.390625 14.285156 C 19.390625 14.578125 19.363281 14.871094 19.304688 15.164062 C 19.25 15.453125 19.164062 15.734375 19.054688 16.007812 C 18.941406 16.28125 18.804688 16.542969 18.644531 16.789062 C 18.484375 17.035156 18.300781 17.261719 18.09375 17.472656 C 17.890625 17.679688 17.664062 17.867188 17.425781 18.03125 C 17.183594 18.195312 16.925781 18.335938 16.660156 18.449219 C 16.390625 18.5625 16.113281 18.648438 15.828125 18.703125 C 15.542969 18.761719 15.257812 18.789062 14.964844 18.789062 C 14.675781 18.789062 14.386719 18.761719 14.101562 18.703125 C 13.816406 18.648438 13.539062 18.5625 13.273438 18.449219 C 13.003906 18.335938 12.75 18.195312 12.507812 18.03125 C 12.265625 17.867188 12.042969 17.679688 11.835938 17.472656 C 11.632812 17.261719 11.449219 17.035156 11.285156 16.789062 C 11.125 16.542969 10.988281 16.28125 10.878906 16.007812 C 10.765625 15.734375 10.683594 15.453125 10.625 15.164062 C 10.570312 14.871094 10.539062 14.578125 10.539062 14.285156 C 10.539062 13.988281 10.570312 13.695312 10.625 13.40625 C 10.683594 13.113281 10.765625 12.832031 10.878906 12.558594 C 10.988281 12.285156 11.125 12.027344 11.285156 11.78125 C 11.449219 11.535156 11.632812 11.304688 11.835938 11.097656 C 12.042969 10.886719 12.265625 10.699219 12.507812 10.535156 C 12.75 10.371094 13.003906 10.234375 13.273438 10.121094 C 13.539062 10.007812 13.816406 9.921875 14.101562 9.863281 C 14.386719 9.804688 14.675781 9.777344 14.964844 9.777344 C 15.257812 9.777344 15.542969 9.804688 15.828125 9.863281 C 16.113281 9.921875 16.390625 10.007812 16.660156 10.121094 C 16.925781 10.234375 17.183594 10.371094 17.425781 10.535156 C 17.664062 10.699219 17.890625 10.886719 18.09375 11.097656 C 18.300781 11.304688 18.484375 11.535156 18.644531 11.78125 C 18.804688 12.027344 18.941406 12.285156 19.054688 12.558594 C 19.164062 12.832031 19.25 13.113281 19.304688 13.40625 C 19.363281 13.695312 19.390625 13.988281 19.390625 14.285156 Z M 19.390625 14.285156 " fill-opacity="1" fill-rule="nonzero"/><path fill="rgb(79.60968%, 91.369629%, 83.139038%)" d="M 11.0625 12.164062 C 10.832031 12.597656 10.679688 13.074219 10.601562 13.578125 C 13.335938 13.375 17.050781 14.894531 18.648438 16.78125 C 18.921875 16.363281 19.125 15.890625 19.25 15.382812 C 17.285156 13.425781 13.828125 12.152344 11.0625 12.164062 Z M 11.0625 12.164062 " fill-opacity="1" fill-rule="nonzero"/><path fill="rgb(53.329468%, 78.819275%, 97.648621%)" d="M 10.871094 14.5 L 11.554688 14.5 L 11.554688 15.199219 L 10.871094 15.199219 Z M 11.554688 15.894531 L 12.242188 15.894531 L 12.242188 16.59375 L 11.554688 16.59375 Z M 11.554688 15.894531 " fill-opacity="1" fill-rule="nonzero"/><path fill="rgb(33.329773%, 67.449951%, 93.328857%)" d="M 12.925781 14.5 L 13.613281 14.5 L 13.613281 15.199219 L 12.925781 15.199219 Z M 14.296875 15.199219 L 14.980469 15.199219 L 14.980469 15.894531 L 14.296875 15.894531 Z M 17.039062 16.59375 L 17.722656 16.59375 L 17.722656 17.292969 L 17.039062 17.292969 Z M 14.980469 17.292969 L 15.667969 17.292969 L 15.667969 17.988281 L 14.980469 17.988281 Z M 17.039062 13.105469 L 17.722656 13.105469 L 17.722656 13.800781 L 17.039062 13.800781 Z M 17.039062 13.105469 " fill-opacity="1" fill-rule="nonzero"/><path fill="rgb(23.139954%, 53.329468%, 76.469421%)" d="M 15.667969 15.894531 L 16.351562 15.894531 L 16.351562 16.59375 L 15.667969 16.59375 Z M 15.667969 15.894531 " fill-opacity="1" fill-rule="nonzero"/></svg>  